<!-- Generated by IcoMoon.io -->
<svg version="1.1" xmlns="http://www.w3.org/2000/svg" width="20" height="20"  viewBox="0 0 32 32">
<title>calendar</title>
<path d="M8.667 20h-4c-0.368 0-0.667-0.298-0.667-0.667v0-4c0-0.368 0.298-0.667 0.667-0.667v0h4c0.368 0 0.667 0.298 0.667 0.667v0 4c0 0.368-0.298 0.667-0.667 0.667v0zM5.333 18.667h2.667v-2.667h-2.667z"></path>
<path d="M8.667 28h-4c-0.368 0-0.667-0.298-0.667-0.667v0-4c0-0.368 0.298-0.667 0.667-0.667v0h4c0.368 0 0.667 0.298 0.667 0.667v0 4c0 0.368-0.298 0.667-0.667 0.667v0zM5.333 26.667h2.667v-2.667h-2.667z"></path>
<path d="M18 20h-4c-0.368 0-0.667-0.298-0.667-0.667v0-4c0-0.368 0.298-0.667 0.667-0.667v0h4c0.368 0 0.667 0.298 0.667 0.667v0 4c0 0.368-0.298 0.667-0.667 0.667v0zM14.667 18.667h2.667v-2.667h-2.667z"></path>
<path d="M18 28h-4c-0.368 0-0.667-0.298-0.667-0.667v0-4c0-0.368 0.298-0.667 0.667-0.667v0h4c0.368 0 0.667 0.298 0.667 0.667v0 4c0 0.368-0.298 0.667-0.667 0.667v0zM14.667 26.667h2.667v-2.667h-2.667z"></path>
<path d="M27.333 20h-4c-0.368 0-0.667-0.298-0.667-0.667v0-4c0-0.368 0.298-0.667 0.667-0.667v0h4c0.368 0 0.667 0.298 0.667 0.667v0 4c0 0.368-0.298 0.667-0.667 0.667v0zM24 18.667h2.667v-2.667h-2.667z"></path>
<path d="M28.667 32h-25.333c-1.841 0-3.333-1.492-3.333-3.333v0-22.667c0-1.841 1.492-3.333 3.333-3.333v0h25.333c1.841 0 3.333 1.492 3.333 3.333v0 22.667c0 1.841-1.492 3.333-3.333 3.333v0zM3.333 4c-1.105 0-2 0.895-2 2v0 22.667c0 1.105 0.895 2 2 2v0h25.333c1.105 0 2-0.895 2-2v0-22.667c0-1.105-0.895-2-2-2v0z"></path>
<path d="M31.333 12h-30.667c-0.368 0-0.667-0.298-0.667-0.667s0.298-0.667 0.667-0.667v0h30.667c0.368 0 0.667 0.298 0.667 0.667s-0.298 0.667-0.667 0.667v0z"></path>
<path d="M7.333 6.667c-0.368 0-0.667-0.298-0.667-0.667v0-5.333c0-0.368 0.298-0.667 0.667-0.667s0.667 0.298 0.667 0.667v0 5.333c0 0.368-0.298 0.667-0.667 0.667v0z"></path>
<path d="M24.667 6.667c-0.368 0-0.667-0.298-0.667-0.667v0-5.333c0-0.368 0.298-0.667 0.667-0.667s0.667 0.298 0.667 0.667v0 5.333c0 0.368-0.298 0.667-0.667 0.667v0z"></path>
</svg>
