<!-- Generated by IcoMoon.io -->
<svg version="1.1" xmlns="http://www.w3.org/2000/svg" width="32" height="32" fill="#0F69AF"  viewBox="0 0 32 32">
<title>education</title>
<path d="M30.933 10.643l-12.752-6.231c-0.6-0.261-1.3-0.413-2.035-0.413s-1.434 0.152-2.069 0.426l0.034-0.013-13.045 6.231c-0.598 0.206-1.027 0.747-1.066 1.393l-0 0.004c0 0.329 0.147 0.916 1.067 1.393l1.067 0.513v5.867c-0.665 0.268-1.127 0.903-1.136 1.648v0.001c0.010 0.732 0.451 1.359 1.080 1.639l0.012 0.005-1.649 5.241h4.619l-1.649-5.241c0.651-0.273 1.1-0.905 1.1-1.642 0-0.75-0.466-1.392-1.124-1.652l-0.012-0.004v-5.243l1.943 0.953v7.624c0.003 0.124 0.043 0.238 0.111 0.331l-0.001-0.002c2.46 2.987 6.159 4.877 10.299 4.877 0.091 0 0.182-0.001 0.272-0.003l-0.014 0c0.076 0.002 0.166 0.003 0.257 0.003 4.129 0 7.817-1.891 10.245-4.854l0.019-0.023c0.066-0.092 0.106-0.206 0.109-0.329v-7.589l4.321-2.125c0.596-0.205 1.024-0.742 1.066-1.385l0-0.005c-0.057-0.644-0.479-1.177-1.055-1.394l-0.011-0.004zM25.439 22.96c-2.261 2.611-5.58 4.253-9.283 4.253-0.061 0-0.122-0-0.183-0.001l0.009 0c-0.052 0.001-0.113 0.001-0.174 0.001-3.703 0-7.023-1.642-9.27-4.238l-0.013-0.015v-6.933l7.588 3.629c0.575 0.253 1.245 0.4 1.949 0.4 0.024 0 0.047-0 0.071-0l-0.004 0c0.035 0.001 0.077 0.002 0.118 0.002 0.704 0 1.369-0.163 1.961-0.453l-0.026 0.012 7.257-3.556zM30.424 12.403l-4.4 2.163c-0.009-0.001-0.019-0.001-0.029-0.001-0.159 0-0.298 0.088-0.37 0.219l-0.001 0.002-7.955 3.849c-0.455 0.191-0.984 0.302-1.539 0.302s-1.084-0.111-1.566-0.312l0.027 0.010-9.791-4.692 11.253-1.32c0.288-0.032 0.509-0.274 0.509-0.567 0-0.315-0.256-0.571-0.571-0.571-0.017 0-0.033 0.001-0.050 0.002l0.002-0-13.048 1.539-1.32-0.623c-0.171-0.060-0.31-0.176-0.398-0.326l-0.002-0.003c0-0.036 0.073-0.183 0.4-0.329l13.049-6.267c0.432-0.186 0.934-0.294 1.462-0.294 0.014 0 0.029 0 0.043 0l-0.002-0c0.027-0.001 0.059-0.001 0.090-0.001 0.524 0 1.022 0.108 1.474 0.304l-0.024-0.009 12.756 6.229c0.329 0.147 0.4 0.293 0.4 0.367-0.102 0.142-0.237 0.254-0.394 0.327l-0.006 0.003z"></path>
</svg>
