<svg width="15" height="15" viewBox="0 0 15 15" fill="none" xmlns="http://www.w3.org/2000/svg">
<g clip-path="url(#clip0_4_83)">
<path d="M9.26681 5.73228C9.14493 5.61041 8.9468 5.61041 8.82492 5.73228C8.70305 5.85416 8.70305 6.05291 8.82492 6.17417C9.17868 6.52793 9.3743 6.99855 9.3743 7.49979C9.3743 8.53353 8.53304 9.3748 7.4993 9.3748C6.99806 9.3748 6.52743 9.1798 6.17367 8.82542C6.0518 8.70354 5.85366 8.70354 5.73179 8.82542C5.60991 8.94668 5.60991 9.14543 5.73179 9.26731C6.20303 9.73981 6.83115 9.99982 7.4993 9.99982C8.87804 9.99982 9.99929 8.87856 9.99929 7.49982C9.99929 6.83165 9.73931 6.20352 9.26681 5.73228Z" fill="#7D7D89"/>
<path d="M7.93585 5.04289C7.79397 5.0179 7.64898 4.99976 7.50024 4.99976C6.1215 4.99976 5.00024 6.12101 5.00024 7.49975C5.00024 7.64849 5.01838 7.79351 5.04398 7.93536C5.07085 8.08662 5.20274 8.1935 5.35087 8.1935C5.369 8.1935 5.38711 8.19224 5.40586 8.18849C5.57523 8.15849 5.68899 7.99598 5.65899 7.82661C5.63962 7.72035 5.62524 7.61225 5.62524 7.49975C5.62524 6.46601 6.4665 5.62475 7.50024 5.62475C7.61274 5.62475 7.72087 5.63914 7.8271 5.65789C7.99336 5.69164 8.15898 5.57413 8.18898 5.40476C8.21898 5.2354 8.10525 5.07289 7.93585 5.04289Z" fill="#7D7D89"/>
<path d="M14.9253 7.2979C14.8547 7.21414 13.1641 5.24102 10.8322 4.03291C10.6809 3.95355 10.4903 4.01355 10.4109 4.1673C10.3316 4.32043 10.3916 4.50916 10.5453 4.58855C12.3416 5.51855 13.7766 6.9698 14.2672 7.49981C13.5222 8.30667 10.5903 11.2498 7.49972 11.2498C6.45098 11.2498 5.3941 10.9967 4.35722 10.4967C4.20347 10.4211 4.01536 10.4867 3.94036 10.6423C3.86474 10.7973 3.93037 10.9842 4.08599 11.0592C5.20786 11.601 6.35661 11.8748 7.49975 11.8748C11.3504 11.8748 14.7816 7.87229 14.926 7.70166C15.0247 7.58538 15.0241 7.41476 14.9253 7.2979Z" fill="#7D7D89"/>
<path d="M9.55023 3.48477C8.83899 3.24539 8.14899 3.12477 7.4996 3.12477C3.64897 3.12477 0.21773 7.12727 0.0733553 7.2979C-0.0179043 7.40539 -0.0254042 7.56166 0.0558651 7.67852C0.09899 7.7404 1.13211 9.20726 2.92273 10.3967C2.97585 10.4323 3.03523 10.4492 3.09523 10.4492C3.19587 10.4492 3.29524 10.4004 3.35524 10.3085C3.45087 10.1654 3.41149 9.97103 3.26773 9.87602C1.95275 9.00166 1.05275 7.94603 0.715864 7.51666C1.43525 6.7354 4.38649 3.74979 7.4996 3.74979C8.08147 3.74979 8.70461 3.8598 9.35084 4.07665C9.51458 4.13539 9.69209 4.04478 9.74646 3.88039C9.80148 3.71666 9.71397 3.53979 9.55023 3.48477Z" fill="#7D7D89"/>
<path d="M13.033 1.96663C12.9111 1.84476 12.713 1.84476 12.5911 1.96663L1.96616 12.5916C1.84429 12.7135 1.84429 12.9116 1.96616 13.0335C2.02742 13.0941 2.1074 13.1248 2.18741 13.1248C2.26742 13.1248 2.3474 13.0942 2.40805 13.0335L13.033 2.40852C13.1549 2.28664 13.1549 2.08851 13.033 1.96663Z" fill="#7D7D89"/>
</g>
<defs>
<clipPath id="clip0_4_83">
<rect width="15" height="15" fill="white"/>
</clipPath>
</defs>
</svg>
