<svg width="20" height="20" viewBox="0 0 20 20" fill="none" xmlns="http://www.w3.org/2000/svg">
<path d="M17.1289 11.9141L18.5156 14.9219L15.2148 15.2148L14.9219 18.5156L11.9141 17.1289L10 19.834L8.08594 17.1289L5.07812 18.5156L4.78516 15.2148L1.48438 14.9219L2.87109 11.9141L0.166016 10L2.87109 8.08594L1.48438 5.07812L4.78516 4.78516L5.07812 1.48438L8.08594 2.87109L10 0.166016L11.9141 2.87109L14.9219 1.48438L15.2148 4.78516L18.5156 5.07812L17.1289 8.08594L19.834 10L17.1289 11.9141ZM16.6406 13.8281L15.5566 11.4844L17.666 10L15.5566 8.51562L16.6406 6.17188L14.0625 5.9375L13.8281 3.35938L11.4844 4.44336L10 2.33398L8.51562 4.44336L6.17188 3.35938L5.9375 5.9375L3.35938 6.17188L4.44336 8.51562L2.33398 10L4.44336 11.4844L3.35938 13.8281L5.9375 14.0625L6.17188 16.6406L8.51562 15.5566L10 17.666L11.4844 15.5566L13.8281 16.6406L14.0625 14.0625L16.6406 13.8281Z" fill="white"/>
</svg>
