<!-- Generated by IcoMoon.io -->
<svg version="1.1" xmlns="http://www.w3.org/2000/svg" width="32" height="32" fill='#0F69AF' viewBox="0 0 32 32">
<title>language</title>
<path d="M16 0c-8.837 0-16 7.163-16 16s7.163 16 16 16c8.837 0 16-7.163 16-16v0c-0.011-8.832-7.168-15.989-15.999-16h-0.001zM16 30.608c-0 0-0.001 0-0.001 0-8.069 0-14.609-6.541-14.609-14.609s6.541-14.609 14.609-14.609c8.069 0 14.609 6.541 14.609 14.609 0 0 0 0.001 0 0.001v-0c-0.010 8.064-6.544 14.598-14.607 14.608h-0.001z"></path>
<path d="M16 0c-5.067 0-9.044 7.029-9.044 16s3.977 16 9.044 16 9.044-7.029 9.044-16-3.977-16-9.044-16zM16 30.608c-4.148 0-7.652-6.691-7.652-14.608s3.504-14.609 7.652-14.609 7.652 6.692 7.652 14.609-3.504 14.608-7.652 14.608z"></path>
<path d="M31.304 15.304h-30.608c-0.009-0-0.020-0.001-0.030-0.001-0.384 0-0.696 0.312-0.696 0.696s0.312 0.696 0.696 0.696c0.011 0 0.021-0 0.032-0.001l-0.001 0h30.608c0.009 0 0.020 0.001 0.030 0.001 0.384 0 0.696-0.312 0.696-0.696s-0.312-0.696-0.696-0.696c-0.011 0-0.021 0-0.032 0.001l0.002-0z"></path>
<path d="M28.828 6.956h-25.657c-0.009-0-0.020-0.001-0.030-0.001-0.384 0-0.696 0.312-0.696 0.696s0.312 0.696 0.696 0.696c0.011 0 0.021-0 0.032-0.001l-0.002 0h25.659c0.371-0.017 0.666-0.322 0.666-0.695s-0.294-0.679-0.664-0.695l-0.002-0z"></path>
<path d="M28.828 23.652h-25.657c-0.009-0-0.020-0.001-0.030-0.001-0.384 0-0.696 0.312-0.696 0.696s0.312 0.696 0.696 0.696c0.011 0 0.021-0 0.032-0.001l-0.002 0h25.659c0.371-0.017 0.666-0.322 0.666-0.695s-0.294-0.679-0.664-0.695l-0.002-0z"></path>
<path d="M16 0c-0.384 0-0.696 0.312-0.696 0.696v0 30.608c-0 0.009-0.001 0.020-0.001 0.030 0 0.384 0.312 0.696 0.696 0.696s0.696-0.312 0.696-0.696c0-0.011-0-0.021-0.001-0.032l0 0.002v-30.608c0 0 0 0 0 0 0-0.384-0.311-0.695-0.695-0.696h-0z"></path>
</svg>
