<!-- Generated by IcoMoon.io -->
<svg version="1.1" xmlns="http://www.w3.org/2000/svg" width="32" height="32" fill="#0F69AF"  viewBox="0 0 32 32">
<title>experience</title>
<path d="M28.703 29.333h-25.333c-0.010 0-0.021 0-0.032 0-1.823 0-3.301-1.478-3.301-3.301 0-0.011 0-0.023 0-0.034v0.002-16c-0-0.010-0-0.021-0-0.032 0-1.823 1.478-3.301 3.301-3.301 0.011 0 0.023 0 0.034 0h25.332c0.010-0 0.021-0 0.032-0 1.823 0 3.301 1.478 3.301 3.301 0 0.011-0 0.023-0 0.034v-0.002 16c0 0.010 0 0.021 0 0.032 0 1.823-1.478 3.301-3.301 3.301-0.011 0-0.023-0-0.034-0h0.002zM3.369 8c-1.093 0.028-1.972 0.907-2 1.997l-0 0.003v16c0.028 1.093 0.907 1.972 1.997 2l0.003 0h25.333c1.093-0.028 1.972-0.907 2-1.997l0-0.003v-16c-0.028-1.093-0.907-1.972-1.997-2l-0.003-0z"></path>
<path d="M20.703 8c-0.012 0.001-0.025 0.001-0.038 0.001-0.348 0-0.629-0.282-0.629-0.629 0-0.014 0-0.027 0.001-0.040l-0 0.002v-2.667c0.001-0.011 0.001-0.025 0.001-0.038 0-0.348-0.282-0.629-0.629-0.629-0.014 0-0.027 0-0.040 0.001l0.002-0h-6.667c-0.011-0.001-0.025-0.001-0.039-0.001-0.348 0-0.629 0.282-0.629 0.629 0 0.014 0 0.027 0.001 0.040l-0-0.002v2.667c0 0.368-0.298 0.667-0.667 0.667s-0.667-0.298-0.667-0.667v0-2.667c0.028-1.093 0.907-1.972 1.997-2l0.003-0h6.667c1.093 0.028 1.972 0.907 2 1.997l0 0.003v2.667c0.001 0.011 0.001 0.025 0.001 0.038 0 0.348-0.282 0.629-0.629 0.629-0.014 0-0.027-0-0.040-0.001l0.002 0z"></path>
<path d="M16.036 18.667h-0.267l-15.333-5.333c-0.257-0.14-0.429-0.408-0.429-0.717 0-0.077 0.011-0.152 0.031-0.222l-0.001 0.006c0.14-0.257 0.408-0.429 0.717-0.429 0.077 0 0.151 0.011 0.222 0.031l-0.006-0.001 15.067 5.333 15.067-5.333c0.073-0.037 0.159-0.059 0.25-0.059 0.273 0 0.501 0.196 0.549 0.456l0.001 0.003c0.037 0.073 0.059 0.159 0.059 0.25 0 0.273-0.196 0.501-0.456 0.549l-0.003 0.001-15.333 5.333c0 0.133 0 0.133-0.133 0.133z"></path>
</svg>
